# xmcd
#
# Track frame offsets:
#	150
#	16580
#	33844
#	43485
#	59559
#	74865
#	92462
#	108837
#	125945
#	143879
#	156907
#	169088
#	188089
#
# Disc length: 2675
#
# Revision: 1
# Processed by: cddbd v1.5.1PL0 Copyright (c) Steve Scherf et al.
# Submitted via: VisiTrax 2.9.5.180 - For more info visit www.synapsa.com
# Normalized: r0:DSETVAR1
#
DISCID=b90a710d
DTITLE=Various Artist - CDX 216 June 1999
DYEAR=1999
DGENRE=
TTITLE0=Sons of the Desert - Albuquerque
TTITLE1=Shane McAnally - Are your eyes still blue
TTITLE2=Tim Wilson - Dale Darrell Waltrip Richard Petty Rusty Awesome Bill Irwin Gordon Earnhardt Smith.. Johnson jr.
TTITLE3=Alison Krauss - Forget about it
TTITLE4=Steve Wariner - I'm already taken
TTITLE5=John Berry - Love is for giving
TTITLE6=Rankins - Movin' on
TTITLE7=Old Dogs - Still gonna die
TTITLE8=Brady Seals - The best is yet to come
TTITLE9=Wilkinsons - The yodelin' blues
TTITLE10=Victoria Shaw - Waikiki cowboy
TTITLE11=Charlie Robison - You're not the best
TTITLE12=Don Emerson - You got your way
EXTD=
EXTT0=
EXTT1=
EXTT2=
EXTT3=
EXTT4=
EXTT5=
EXTT6=
EXTT7=
EXTT8=
EXTT9=
EXTT10=
EXTT11=
EXTT12=
PLAYORDER=
